<svg xmlns="http://www.w3.org/2000/svg" viewBox="0 0 512 512" fill="#4682B4">
  <path d="M96 320c-53 0-96-43-96-96c0-42.5 27.6-78.5 65.9-91.2C64.7 126.1 64 119.1 64 112C64 50.1 114.1 0 176 0c43.1 0 80.5 24.3 99.2 60c14.7-17.1 36.5-28 60.8-28c44.2 0 80 35.8 80 80c0 5.5-.6 10.8-1.6 16c.5 0 1.1 0 1.6 0c53 0 96 43 96 96s-43 96-96 96H96zm-6.2 192c-6.2 0-11.9-3.6-14.5-9.3l-16-32c-3.5-7.1-.5-15.7 6.6-19.2s15.7-.5 19.2 6.6l16 32c3.5 7.1 .5 15.7-6.6 19.2c-2.1 1-4.2 1.5-6.4 1.5zm96-80c-6.2 0-11.9-3.6-14.5-9.3l-16-32c-3.5-7.1-.5-15.7 6.6-19.2s15.7-.5 19.2 6.6l16 32c3.5 7.1 .5 15.7-6.6 19.2c-2.1 1-4.2 1.5-6.4 1.5zm92.8 31.6c-8-.4-14.3-7.1-14-15.2l4.4-116.9c.4-8 7.1-14.3 15.2-14c8 .4 14.3 7.1 14 15.2l-4.4 116.9c-.4 7.7-6.7 13.9-14.4 14c-.3 0-.5 0-.8 0zm91.4 48.4c-6.2 0-11.9-3.6-14.5-9.3l-16-32c-3.5-7.1-.5-15.7 6.6-19.2s15.7-.5 19.2 6.6l16 32c3.5 7.1 .5 15.7-6.6 19.2c-2.1 1-4.2 1.5-6.4 1.5zm93 48.4c-6.2 0-11.9-3.6-14.5-9.3l-32-64c-3.5-7.1-.5-15.7 6.6-19.2s15.7-.5 19.2 6.6l32 64c3.5 7.1 .5 15.7-6.6 19.2c-2.1 1-4.2 1.5-6.4 1.5z"/>
</svg>
