<svg xmlns="http://www.w3.org/2000/svg" viewBox="0 0 512 512" fill="#FFD700">
  <path d="M256 160a96 96 0 1 0 0 192 96 96 0 1 0 0-192zm0 224a128 128 0 1 1 0-256 128 128 0 1 1 0 256zm0-320a32 32 0 0 1-32-32V32a32 32 0 1 1 64 0v32a32 32 0 0 1-32 32zm0 384a32 32 0 0 1-32-32v-32a32 32 0 1 1 64 0v32a32 32 0 0 1-32 32zm160-160a32 32 0 0 1 32 32h32a32 32 0 1 1 0 64h-32a32 32 0 0 1-32-32zm-320 0a32 32 0 0 1-32 32H32a32 32 0 1 1 0-64h32a32 32 0 0 1 32 32zm320-96a32 32 0 0 1 0 45.3l-22.6 22.6a32 32 0 1 1-45.3-45.3l22.6-22.6a32 32 0 0 1 45.3 0zm-320 192a32 32 0 0 1 0 45.3l-22.6 22.6a32 32 0 1 1-45.3-45.3l22.6-22.6a32 32 0 0 1 45.3 0zm384-192a32 32 0 0 1 0 45.3l-22.6 22.6a32 32 0 1 1-45.3-45.3l22.6-22.6a32 32 0 0 1 45.3 0zm-320 192a32 32 0 0 1 0 45.3l-22.6 22.6a32 32 0 1 1-45.3-45.3l22.6-22.6a32 32 0 0 1 45.3 0z"/>
</svg>
